<svg width="1170" height="50" viewBox="0 0 1170 50" fill="none" xmlns="http://www.w3.org/2000/svg">
<rect x="1045" width="125" height="50" rx="12" fill="#E8F1FF"/>
<path d="M1088.74 21.5625H1090.77C1090.73 19.5966 1089.05 18.2045 1086.58 18.2045C1084.13 18.2045 1082.3 19.5795 1082.3 21.6364C1082.3 23.3068 1083.49 24.267 1085.41 24.7614L1086.73 25.1023C1087.98 25.4205 1088.81 25.8125 1088.82 26.7159C1088.81 27.7102 1087.87 28.375 1086.5 28.375C1085.18 28.375 1084.16 27.7841 1084.07 26.5625H1082C1082.08 28.875 1083.8 30.1761 1086.51 30.1761C1089.3 30.1761 1090.92 28.7841 1090.93 26.733C1090.92 24.7159 1089.26 23.7955 1087.51 23.3807L1086.42 23.108C1085.46 22.8807 1084.43 22.4773 1084.44 21.5057C1084.45 20.6307 1085.23 19.9886 1086.55 19.9886C1087.8 19.9886 1088.63 20.5739 1088.74 21.5625ZM1092.56 30H1094.61V21.2727H1092.56V30ZM1093.59 20.0341C1094.24 20.0341 1094.78 19.5341 1094.78 18.9205C1094.78 18.3011 1094.24 17.8011 1093.59 17.8011C1092.93 17.8011 1092.4 18.3011 1092.4 18.9205C1092.4 19.5341 1092.93 20.0341 1093.59 20.0341ZM1100.36 33.4545C1102.72 33.4545 1104.46 32.375 1104.46 30.142V21.2727H1102.43V22.7159H1102.32C1102.01 22.0852 1101.35 21.1591 1099.81 21.1591C1097.8 21.1591 1096.21 22.7386 1096.21 25.608C1096.21 28.4545 1097.8 29.875 1099.81 29.875C1101.3 29.875 1102 29.0739 1102.32 28.4318H1102.42V30.0852C1102.42 31.3693 1101.57 31.8977 1100.4 31.8977C1099.16 31.8977 1098.61 31.3125 1098.36 30.8011L1096.51 31.25C1096.89 32.4716 1098.14 33.4545 1100.36 33.4545ZM1100.38 28.2614C1099.02 28.2614 1098.31 27.2045 1098.31 25.5966C1098.31 24.0114 1099.01 22.8466 1100.38 22.8466C1101.7 22.8466 1102.43 23.9432 1102.43 25.5966C1102.43 27.2614 1101.69 28.2614 1100.38 28.2614ZM1108.47 24.8864C1108.47 23.625 1109.23 22.8977 1110.31 22.8977C1111.37 22.8977 1112.01 23.5966 1112.01 24.7614V30H1114.07V24.4432C1114.07 22.3523 1112.88 21.1591 1111.08 21.1591C1109.77 21.1591 1108.87 21.7841 1108.48 22.7557H1108.37V21.2727H1106.41V30H1108.47V24.8864ZM1122.01 18.3636H1119.9V30H1122.01V18.3636ZM1126.09 24.8864C1126.09 23.625 1126.86 22.8977 1127.94 22.8977C1129 22.8977 1129.64 23.5966 1129.64 24.7614V30H1131.7V24.4432C1131.7 22.3523 1130.51 21.1591 1128.71 21.1591C1127.4 21.1591 1126.5 21.7841 1126.11 22.7557H1126V21.2727H1124.04V30H1126.09V24.8864Z" fill="#2378FF"/>
<path d="M418.076 30H420.052V25.3658H425.107V30H427.089V19.0909H425.107V23.7092H420.052V19.0909H418.076V30ZM432.572 30.1598C434.969 30.1598 436.492 28.4712 436.492 25.9411C436.492 23.4055 434.969 21.7116 432.572 21.7116C430.175 21.7116 428.651 23.4055 428.651 25.9411C428.651 28.4712 430.175 30.1598 432.572 30.1598ZM432.582 28.6151C431.256 28.6151 430.606 27.4325 430.606 25.9357C430.606 24.4389 431.256 23.2404 432.582 23.2404C433.887 23.2404 434.537 24.4389 434.537 25.9357C434.537 27.4325 433.887 28.6151 432.582 28.6151ZM437.979 30H439.907V25.0249C439.907 24.0181 440.578 23.3363 441.409 23.3363C442.224 23.3363 442.784 23.8849 442.784 24.7266V30H444.675V24.897C444.675 23.9755 445.223 23.3363 446.155 23.3363C446.933 23.3363 447.551 23.7944 447.551 24.8065V30H449.485V24.5082C449.485 22.6811 448.43 21.7116 446.928 21.7116C445.74 21.7116 444.834 22.2976 444.472 23.2085H444.387C444.073 22.2816 443.279 21.7116 442.176 21.7116C441.079 21.7116 440.259 22.2763 439.918 23.2085H439.822V21.8182H437.979V30ZM454.913 30.1598C456.82 30.1598 458.13 29.2276 458.471 27.8054L456.671 27.603C456.41 28.2955 455.771 28.6577 454.94 28.6577C453.693 28.6577 452.867 27.8374 452.851 26.4364H458.551V25.8452C458.551 22.9741 456.825 21.7116 454.812 21.7116C452.468 21.7116 450.939 23.4322 450.939 25.957C450.939 28.5245 452.447 30.1598 454.913 30.1598ZM452.857 25.1367C452.915 24.0927 453.688 23.2138 454.838 23.2138C455.946 23.2138 456.692 24.0234 456.703 25.1367H452.857Z" fill="#030303"/>
<path d="M604.099 22.5C603.695 20.2628 601.905 18.9418 599.71 18.9418C596.919 18.9418 594.895 21.0938 594.895 24.5455C594.895 27.9972 596.919 30.1491 599.71 30.1491C601.905 30.1491 603.695 28.8281 604.099 26.5909H602.778C602.459 28.1037 601.159 28.9134 599.71 28.9134C597.729 28.9134 596.173 27.3793 596.173 24.5455C596.173 21.7116 597.729 20.1776 599.71 20.1776C601.159 20.1776 602.459 20.9872 602.778 22.5H604.099ZM609.238 30.1705C611.453 30.1705 612.945 28.4872 612.945 25.9517C612.945 23.3949 611.453 21.7116 609.238 21.7116C607.022 21.7116 605.53 23.3949 605.53 25.9517C605.53 28.4872 607.022 30.1705 609.238 30.1705ZM609.238 29.0412C607.554 29.0412 606.787 27.5923 606.787 25.9517C606.787 24.3111 607.554 22.8409 609.238 22.8409C610.921 22.8409 611.688 24.3111 611.688 25.9517C611.688 27.5923 610.921 29.0412 609.238 29.0412ZM619.87 26.6548C619.87 28.1889 618.698 28.892 617.761 28.892C616.717 28.892 615.971 28.125 615.971 26.9318V21.8182H614.714V27.017C614.714 29.1051 615.822 30.1065 617.356 30.1065C618.592 30.1065 619.401 29.446 619.785 28.6151H619.87V30H621.127V21.8182H619.87V26.6548ZM623.28 30H624.537V24.8224C624.537 23.7145 625.41 22.9048 626.604 22.9048C626.939 22.9048 627.285 22.9688 627.371 22.9901V21.7116C627.227 21.701 626.897 21.6903 626.71 21.6903C625.73 21.6903 624.878 22.2443 624.579 23.054H624.494V21.8182H623.28V30ZM634.506 23.6506C634.112 22.4893 633.228 21.7116 631.608 21.7116C629.883 21.7116 628.604 22.6918 628.604 24.0767C628.604 25.206 629.275 25.9624 630.777 26.3139L632.141 26.6335C632.967 26.8253 633.356 27.2195 633.356 27.7841C633.356 28.4872 632.61 29.0625 631.438 29.0625C630.41 29.0625 629.765 28.6204 629.542 27.7415L628.349 28.0398C628.641 29.43 629.787 30.1705 631.459 30.1705C633.361 30.1705 634.655 29.1317 634.655 27.7202C634.655 26.5803 633.942 25.8612 632.482 25.5043L631.268 25.206C630.298 24.9663 629.861 24.6413 629.861 24.0128C629.861 23.3097 630.607 22.7983 631.608 22.7983C632.706 22.7983 633.159 23.4055 633.377 23.9702L634.506 23.6506ZM639.828 30.1705C641.49 30.1705 642.704 29.3395 643.088 28.1037L641.873 27.7628C641.554 28.6151 640.813 29.0412 639.828 29.0412C638.353 29.0412 637.335 28.0877 637.277 26.3352H643.216V25.8026C643.216 22.7557 641.405 21.7116 639.7 21.7116C637.484 21.7116 636.014 23.4588 636.014 25.973C636.014 28.4872 637.463 30.1705 639.828 30.1705ZM637.277 25.2486C637.362 23.9755 638.262 22.8409 639.7 22.8409C641.064 22.8409 641.937 23.8636 641.937 25.2486H637.277ZM650.774 23.6506C650.379 22.4893 649.495 21.7116 647.876 21.7116C646.15 21.7116 644.872 22.6918 644.872 24.0767C644.872 25.206 645.543 25.9624 647.045 26.3139L648.409 26.6335C649.234 26.8253 649.623 27.2195 649.623 27.7841C649.623 28.4872 648.877 29.0625 647.705 29.0625C646.677 29.0625 646.033 28.6204 645.809 27.7415L644.616 28.0398C644.909 29.43 646.054 30.1705 647.727 30.1705C649.628 30.1705 650.923 29.1317 650.923 27.7202C650.923 26.5803 650.209 25.8612 648.749 25.5043L647.535 25.206C646.565 24.9663 646.129 24.6413 646.129 24.0128C646.129 23.3097 646.874 22.7983 647.876 22.7983C648.973 22.7983 649.426 23.4055 649.644 23.9702L650.774 23.6506Z" fill="#030303"/>
<path d="M707.099 22.5C706.695 20.2628 704.905 18.9418 702.71 18.9418C699.919 18.9418 697.895 21.0938 697.895 24.5455C697.895 27.9972 699.919 30.1491 702.71 30.1491C704.905 30.1491 706.695 28.8281 707.099 26.5909H705.778C705.459 28.1037 704.159 28.9134 702.71 28.9134C700.729 28.9134 699.173 27.3793 699.173 24.5455C699.173 21.7116 700.729 20.1776 702.71 20.1776C704.159 20.1776 705.459 20.9872 705.778 22.5H707.099ZM712.238 30.1705C714.453 30.1705 715.945 28.4872 715.945 25.9517C715.945 23.3949 714.453 21.7116 712.238 21.7116C710.022 21.7116 708.53 23.3949 708.53 25.9517C708.53 28.4872 710.022 30.1705 712.238 30.1705ZM712.238 29.0412C710.554 29.0412 709.787 27.5923 709.787 25.9517C709.787 24.3111 710.554 22.8409 712.238 22.8409C713.921 22.8409 714.688 24.3111 714.688 25.9517C714.688 27.5923 713.921 29.0412 712.238 29.0412ZM718.971 25.0781C718.971 23.6506 719.855 22.8409 721.059 22.8409C722.226 22.8409 722.934 23.6026 722.934 24.8864V30H724.191V24.8011C724.191 22.7131 723.078 21.7116 721.421 21.7116C720.185 21.7116 719.418 22.2656 719.035 23.0966H718.928V21.8182H717.714V30H718.971V25.0781ZM729.897 21.8182H728.149V19.858H726.892V21.8182H725.656V22.8835H726.892V27.9972C726.892 29.4247 728.043 30.1065 729.108 30.1065C729.577 30.1065 729.875 30.0213 730.046 29.9574L729.79 28.8281C729.683 28.8494 729.513 28.892 729.236 28.892C728.682 28.892 728.149 28.7216 728.149 27.6562V22.8835H729.897V21.8182ZM734.045 30.1918C735.473 30.1918 736.218 29.4247 736.474 28.892H736.538V30H737.795V24.6094C737.795 22.0099 735.814 21.7116 734.77 21.7116C733.534 21.7116 732.128 22.1378 731.488 23.6293L732.682 24.0554C732.959 23.4588 733.614 22.8196 734.812 22.8196C735.968 22.8196 736.538 23.4322 736.538 24.4815V24.5241C736.538 25.1314 735.92 25.0781 734.429 25.2699C732.911 25.467 731.254 25.8026 731.254 27.6776C731.254 29.2756 732.49 30.1918 734.045 30.1918ZM734.237 29.0625C733.235 29.0625 732.511 28.6151 732.511 27.7415C732.511 26.7827 733.385 26.4844 734.365 26.3565C734.897 26.2926 736.325 26.1435 736.538 25.8878V27.0384C736.538 28.0611 735.728 29.0625 734.237 29.0625ZM743.263 30.1705C745.075 30.1705 746.268 29.0625 746.481 27.6136H745.224C744.989 28.5085 744.244 29.0412 743.263 29.0412C741.772 29.0412 740.813 27.8054 740.813 25.9091C740.813 24.0554 741.793 22.8409 743.263 22.8409C744.371 22.8409 745.032 23.5227 745.224 24.2685H746.481C746.268 22.7344 744.968 21.7116 743.242 21.7116C741.026 21.7116 739.556 23.4588 739.556 25.9517C739.556 28.402 740.962 30.1705 743.263 30.1705ZM751.727 21.8182H749.98V19.858H748.723V21.8182H747.487V22.8835H748.723V27.9972C748.723 29.4247 749.873 30.1065 750.938 30.1065C751.407 30.1065 751.705 30.0213 751.876 29.9574L751.62 28.8281C751.514 28.8494 751.343 28.892 751.066 28.892C750.512 28.892 749.98 28.7216 749.98 27.6562V22.8835H751.727V21.8182Z" fill="#030303"/>
<path d="M505.321 30H506.642V26.0156H509.028C511.569 26.0156 512.714 24.4709 512.714 22.5426C512.714 20.6143 511.569 19.0909 509.007 19.0909H505.321V30ZM506.642 24.8438V20.2628H508.964C510.738 20.2628 511.415 21.2322 511.415 22.5426C511.415 23.853 510.738 24.8438 508.986 24.8438H506.642ZM514.522 30H515.779V24.8224C515.779 23.7145 516.653 22.9048 517.846 22.9048C518.181 22.9048 518.528 22.9688 518.613 22.9901V21.7116C518.469 21.701 518.139 21.6903 517.952 21.6903C516.972 21.6903 516.12 22.2443 515.822 23.054H515.737V21.8182H514.522V30ZM523.028 30.1705C525.244 30.1705 526.735 28.4872 526.735 25.9517C526.735 23.3949 525.244 21.7116 523.028 21.7116C520.812 21.7116 519.321 23.3949 519.321 25.9517C519.321 28.4872 520.812 30.1705 523.028 30.1705ZM523.028 29.0412C521.345 29.0412 520.578 27.5923 520.578 25.9517C520.578 24.3111 521.345 22.8409 523.028 22.8409C524.711 22.8409 525.478 24.3111 525.478 25.9517C525.478 27.5923 524.711 29.0412 523.028 29.0412ZM532.148 21.8182H530.315V20.9872C530.315 20.1776 530.656 19.7514 531.487 19.7514C531.849 19.7514 532.063 19.8366 532.19 19.8793L532.553 18.7926C532.361 18.7074 531.977 18.5795 531.359 18.5795C530.188 18.5795 529.058 19.2827 529.058 20.6889V21.8182H527.737V22.8835H529.058V30H530.315V22.8835H532.148V21.8182ZM533.76 30H535.017V21.8182H533.76V30ZM534.399 20.4545C534.889 20.4545 535.294 20.071 535.294 19.6023C535.294 19.1335 534.889 18.75 534.399 18.75C533.909 18.75 533.504 19.1335 533.504 19.6023C533.504 20.071 533.909 20.4545 534.399 20.4545ZM538.426 19.0909H537.169V30H538.426V19.0909ZM544.009 30.1705C545.671 30.1705 546.886 29.3395 547.269 28.1037L546.055 27.7628C545.735 28.6151 544.995 29.0412 544.009 29.0412C542.534 29.0412 541.516 28.0877 541.458 26.3352H547.397V25.8026C547.397 22.7557 545.586 21.7116 543.881 21.7116C541.665 21.7116 540.195 23.4588 540.195 25.973C540.195 28.4872 541.644 30.1705 544.009 30.1705ZM541.458 25.2486C541.543 23.9755 542.443 22.8409 543.881 22.8409C545.245 22.8409 546.118 23.8636 546.118 25.2486H541.458Z" fill="#030303"/>
<rect y="6" width="38" height="38" rx="19" fill="#F77E53"/>
<path d="M16.944 35.168C16.496 35.168 15.964 35.1213 15.348 35.028C14.7507 34.9347 14.172 34.7387 13.612 34.44C13.052 34.1227 12.5853 33.6467 12.212 33.012C11.8387 32.3587 11.652 31.4813 11.652 30.38V19.208C11.652 18.2373 11.8013 17.4253 12.1 16.772C12.4173 16.1187 12.8093 15.6147 13.276 15.26C13.7613 14.8867 14.3027 14.6253 14.9 14.476C15.4973 14.308 16.076 14.224 16.636 14.224C18.1293 14.224 19.4267 14.252 20.528 14.308C21.6293 14.3453 22.6 14.392 23.44 14.448C24.28 14.504 25.036 14.56 25.708 14.616V18.704H18.092C17.588 18.704 17.196 18.8253 16.916 19.068C16.636 19.292 16.496 19.656 16.496 20.16V22.456L24.336 22.736V26.544L16.496 26.796V28.98C16.496 29.3907 16.5613 29.7173 16.692 29.96C16.8227 30.184 17 30.352 17.224 30.464C17.448 30.576 17.6907 30.632 17.952 30.632H25.708V34.692C24.8867 34.7853 23.972 34.8693 22.964 34.944C21.956 35.0187 20.9293 35.0653 19.884 35.084C18.8573 35.1213 17.8773 35.1493 16.944 35.168Z" fill="white"/>
<path d="M48.856 33.12C48.472 33.12 48.032 33.08 47.536 33C47.04 32.936 46.56 32.776 46.096 32.52C45.648 32.264 45.272 31.88 44.968 31.368C44.68 30.84 44.536 30.12 44.536 29.208V19.296C44.536 18.512 44.656 17.856 44.896 17.328C45.136 16.8 45.456 16.384 45.856 16.08C46.256 15.776 46.696 15.56 47.176 15.432C47.656 15.304 48.128 15.24 48.592 15.24C49.792 15.24 50.848 15.256 51.76 15.288C52.688 15.32 53.52 15.36 54.256 15.408C54.992 15.44 55.664 15.488 56.272 15.552V18.528H49.648C49.152 18.528 48.768 18.648 48.496 18.888C48.224 19.128 48.088 19.496 48.088 19.992V22.56L55.12 22.752V25.56L48.088 25.752V28.2C48.088 28.616 48.152 28.944 48.28 29.184C48.424 29.408 48.608 29.568 48.832 29.664C49.072 29.744 49.32 29.784 49.576 29.784H56.272V32.76C55.568 32.84 54.784 32.904 53.92 32.952C53.072 33 52.208 33.04 51.328 33.072C50.464 33.104 49.64 33.12 48.856 33.12ZM62.6723 33.144C61.6643 33.144 60.8163 32.936 60.1283 32.52C59.4403 32.088 58.9203 31.4 58.5683 30.456C58.2323 29.496 58.0643 28.24 58.0643 26.688C58.0643 25.088 58.2083 23.792 58.4963 22.8C58.8003 21.808 59.3043 21.08 60.0083 20.616C60.7123 20.152 61.6803 19.92 62.9123 19.92C63.5043 19.92 64.0883 19.984 64.6643 20.112C65.2403 20.224 65.7523 20.36 66.2003 20.52V14.688H69.7763V33H66.7763L66.2003 31.776C65.9283 32.032 65.5923 32.264 65.1923 32.472C64.8083 32.68 64.4003 32.848 63.9683 32.976C63.5363 33.088 63.1043 33.144 62.6723 33.144ZM63.9203 30.288C64.4003 30.288 64.8323 30.208 65.2163 30.048C65.6163 29.888 65.9443 29.728 66.2003 29.568V23.088C65.8803 22.976 65.5443 22.864 65.1923 22.752C64.8403 22.64 64.4643 22.584 64.0643 22.584C63.4723 22.584 62.9923 22.688 62.6243 22.896C62.2723 23.104 62.0163 23.496 61.8563 24.072C61.6963 24.632 61.6163 25.448 61.6163 26.52C61.6163 27.512 61.6883 28.288 61.8323 28.848C61.9923 29.392 62.2403 29.768 62.5763 29.976C62.9123 30.184 63.3603 30.288 63.9203 30.288ZM75.8485 33.144C74.6965 33.144 73.7925 32.808 73.1365 32.136C72.4805 31.448 72.1525 30.48 72.1525 29.232V20.112H75.7045V28.176C75.7045 28.896 75.8725 29.384 76.2085 29.64C76.5605 29.88 77.0165 30 77.5765 30C78.0245 30 78.4805 29.92 78.9445 29.76C79.4245 29.584 79.8485 29.352 80.2165 29.064V20.112H83.7925V33H80.8405L80.2165 31.68C79.6405 32.064 78.9765 32.408 78.2245 32.712C77.4725 33 76.6805 33.144 75.8485 33.144ZM90.9139 33.144C90.5139 33.144 90.0819 33.128 89.6179 33.096C89.1539 33.08 88.6899 33.048 88.2259 33C87.7619 32.952 87.3299 32.896 86.9299 32.832C86.5299 32.752 86.1939 32.664 85.9219 32.568V30.48H91.6339C91.9699 30.48 92.2419 30.456 92.4499 30.408C92.6739 30.344 92.8339 30.24 92.9299 30.096C93.0419 29.936 93.0979 29.712 93.0979 29.424V29.016C93.0979 28.696 92.9939 28.448 92.7859 28.272C92.5779 28.096 92.1939 28.008 91.6339 28.008H89.6179C88.8819 28.008 88.2179 27.896 87.6259 27.672C87.0339 27.448 86.5619 27.08 86.2099 26.568C85.8739 26.056 85.7059 25.368 85.7059 24.504V23.76C85.7059 22.944 85.8659 22.256 86.1859 21.696C86.5059 21.136 87.0419 20.712 87.7939 20.424C88.5459 20.136 89.5779 19.992 90.8899 19.992C91.4179 19.992 91.9779 20.024 92.5699 20.088C93.1779 20.136 93.7459 20.208 94.2739 20.304C94.8179 20.384 95.2499 20.48 95.5699 20.592V22.68H90.1699C89.7059 22.68 89.3539 22.76 89.1139 22.92C88.8739 23.064 88.7539 23.344 88.7539 23.76V24.144C88.7539 24.432 88.8099 24.648 88.9219 24.792C89.0339 24.92 89.2019 25.016 89.4259 25.08C89.6659 25.128 89.9619 25.152 90.3139 25.152H92.3779C93.6899 25.152 94.6419 25.456 95.2339 26.064C95.8419 26.656 96.1459 27.48 96.1459 28.536V29.688C96.1459 30.552 95.9379 31.24 95.5219 31.752C95.1219 32.248 94.5299 32.608 93.7459 32.832C92.9779 33.04 92.0339 33.144 90.9139 33.144ZM98.1111 33V14.712H101.663V21.432C102.127 21.048 102.727 20.696 103.463 20.376C104.215 20.056 104.983 19.896 105.767 19.896C106.743 19.896 107.519 20.088 108.095 20.472C108.671 20.856 109.087 21.392 109.343 22.08C109.599 22.768 109.727 23.568 109.727 24.48V33H106.175V24.936C106.175 24.52 106.095 24.176 105.935 23.904C105.775 23.632 105.559 23.432 105.287 23.304C105.015 23.16 104.695 23.088 104.327 23.088C103.991 23.088 103.663 23.136 103.343 23.232C103.039 23.312 102.743 23.424 102.455 23.568C102.183 23.712 101.919 23.872 101.663 24.048V33H98.1111ZM114.881 33.144C113.905 33.144 113.113 32.856 112.505 32.28C111.897 31.704 111.593 30.904 111.593 29.88V28.728C111.593 27.752 111.937 26.952 112.625 26.328C113.313 25.688 114.385 25.368 115.841 25.368H119.129V24.48C119.129 24.08 119.057 23.752 118.913 23.496C118.769 23.224 118.497 23.032 118.097 22.92C117.713 22.792 117.121 22.728 116.321 22.728H112.457V20.664C113.081 20.472 113.801 20.304 114.617 20.16C115.449 20.016 116.449 19.944 117.617 19.944C118.689 19.944 119.601 20.072 120.353 20.328C121.121 20.584 121.697 21.024 122.081 21.648C122.481 22.272 122.681 23.136 122.681 24.24V33H119.873L119.297 31.632C119.185 31.76 118.993 31.904 118.721 32.064C118.449 32.224 118.113 32.392 117.713 32.568C117.329 32.728 116.889 32.864 116.393 32.976C115.913 33.088 115.409 33.144 114.881 33.144ZM116.681 30.672C116.841 30.672 117.017 30.656 117.209 30.624C117.417 30.576 117.625 30.528 117.833 30.48C118.057 30.416 118.257 30.36 118.433 30.312C118.625 30.248 118.777 30.192 118.889 30.144C119.017 30.096 119.097 30.064 119.129 30.048V27.048L116.969 27.192C116.345 27.24 115.881 27.4 115.577 27.672C115.289 27.944 115.145 28.312 115.145 28.776V29.304C115.145 29.624 115.209 29.888 115.337 30.096C115.481 30.304 115.665 30.456 115.889 30.552C116.129 30.632 116.393 30.672 116.681 30.672ZM125.1 33V20.112H127.836L128.652 22.08C129.116 21.488 129.636 20.984 130.212 20.568C130.804 20.152 131.5 19.944 132.3 19.944C132.476 19.944 132.652 19.952 132.828 19.968C133.02 19.984 133.196 20.016 133.356 20.064V23.712C133.116 23.68 132.86 23.656 132.588 23.64C132.332 23.608 132.084 23.592 131.844 23.592C131.38 23.592 130.956 23.648 130.572 23.76C130.204 23.856 129.86 24.008 129.54 24.216C129.236 24.408 128.94 24.664 128.652 24.984V33H125.1ZM140.432 33.12C139.008 33.12 137.872 32.936 137.024 32.568C136.176 32.184 135.56 31.512 135.176 30.552C134.808 29.592 134.624 28.264 134.624 26.568C134.624 24.824 134.8 23.472 135.152 22.512C135.504 21.552 136.096 20.88 136.928 20.496C137.76 20.112 138.888 19.92 140.312 19.92C141.592 19.92 142.616 20.048 143.384 20.304C144.152 20.56 144.704 21.008 145.04 21.648C145.392 22.288 145.568 23.192 145.568 24.36C145.568 25.224 145.392 25.912 145.04 26.424C144.704 26.92 144.224 27.28 143.6 27.504C142.976 27.712 142.24 27.816 141.392 27.816H138.152C138.184 28.472 138.28 29 138.44 29.4C138.616 29.784 138.928 30.064 139.376 30.24C139.84 30.4 140.504 30.48 141.368 30.48H145.136V32.568C144.512 32.696 143.824 32.824 143.072 32.952C142.336 33.064 141.456 33.12 140.432 33.12ZM138.104 25.704H141.032C141.512 25.704 141.864 25.608 142.088 25.416C142.312 25.224 142.424 24.88 142.424 24.384C142.424 23.92 142.352 23.552 142.208 23.28C142.064 22.992 141.84 22.792 141.536 22.68C141.232 22.552 140.824 22.488 140.312 22.488C139.768 22.488 139.336 22.584 139.016 22.776C138.696 22.952 138.464 23.272 138.32 23.736C138.176 24.2 138.104 24.856 138.104 25.704Z" fill="#0F1130"/>
</svg>
